<svg xmlns="http://www.w3.org/2000/svg" viewBox="0 0 150 40" width="150" height="40">
  <path d="M24.5,10 C17.5,10 12,15.5 12,22.5 C12,29.5 17.5,35 24.5,35 C31.5,35 37,29.5 37,22.5 C37,15.5 31.5,10 24.5,10 Z M24.5,31 C19.8,31 16,27.2 16,22.5 C16,17.8 19.8,14 24.5,14 C29.2,14 33,17.8 33,22.5 C33,27.2 29.2,31 24.5,31 Z" fill="#6C63FF"/>
  <path d="M48,15 L51,15 L55,30 L59,15 L62,15 L66,30 L70,15 L73,15 L67,35 L64,35 L60,20 L56,35 L53,35 L48,15 Z" fill="#1A1A1A"/>
  <path d="M75,15 L78,15 L78,35 L75,35 L75,15 Z" fill="#1A1A1A"/>
  <path d="M82,15 L85,15 L85,32 L95,32 L95,35 L82,35 L82,15 Z" fill="#1A1A1A"/>
  <path d="M97,15 L110,15 L110,18 L100,18 L100,23 L108,23 L108,26 L100,26 L100,32 L110,32 L110,35 L97,35 L97,15 Z" fill="#1A1A1A"/>
  <path d="M115,15 L118,15 L118,32 L128,32 L128,35 L115,35 L115,15 Z" fill="#1A1A1A"/>
  <path d="M130,15 L143,15 L143,18 L133,18 L133,23 L141,23 L141,26 L133,26 L133,32 L143,32 L143,35 L130,35 L130,15 Z" fill="#1A1A1A"/>
</svg>